<svg width="19" height="19" viewBox="0 0 19 19" fill="none" xmlns="http://www.w3.org/2000/svg">
<path d="M11.4563 1.60396C11.4753 1.53253 11.5082 1.46556 11.5532 1.40687C11.5981 1.34818 11.6542 1.29892 11.7182 1.26191C11.7822 1.22491 11.8529 1.20088 11.9261 1.19121C11.9994 1.18153 12.0739 1.1864 12.1453 1.20552C13.5039 1.55992 14.7435 2.27011 15.7363 3.26294C16.7292 4.25578 17.4394 5.49535 17.7938 6.85396C17.8129 6.92537 17.8178 6.99985 17.8081 7.07313C17.7984 7.14642 17.7744 7.21709 17.7374 7.28108C17.7004 7.34508 17.6511 7.40115 17.5924 7.4461C17.5337 7.49104 17.4668 7.52398 17.3953 7.54303C17.3479 7.55565 17.2991 7.56195 17.25 7.56177C17.1261 7.56185 17.0056 7.52099 16.9073 7.44555C16.8089 7.37011 16.7383 7.26431 16.7063 7.14459C16.402 5.97758 15.792 4.91281 14.9393 4.06002C14.0865 3.20724 13.0217 2.59728 11.8547 2.29302C11.7833 2.27398 11.7163 2.24104 11.6576 2.1961C11.5989 2.15115 11.5497 2.09508 11.5126 2.03108C11.4756 1.96709 11.4516 1.89642 11.4419 1.82313C11.4323 1.74985 11.4371 1.67537 11.4563 1.60396ZM11.1047 5.29303C12.4688 5.65677 13.3425 6.53053 13.7063 7.89459C13.7383 8.01431 13.8089 8.12011 13.9073 8.19555C14.0056 8.27099 14.1261 8.31185 14.25 8.31177C14.2991 8.31195 14.3479 8.30565 14.3953 8.29303C14.4668 8.27398 14.5337 8.24104 14.5924 8.1961C14.6511 8.15115 14.7004 8.09508 14.7374 8.03108C14.7744 7.96709 14.7984 7.89642 14.8081 7.82313C14.8178 7.74985 14.8129 7.67537 14.7938 7.60396C14.325 5.8499 13.1494 4.67427 11.3953 4.20552C11.3239 4.18644 11.2494 4.18161 11.1762 4.19131C11.1029 4.201 11.0323 4.22504 10.9683 4.26203C10.839 4.33676 10.7448 4.45975 10.7063 4.60396C10.6677 4.74817 10.688 4.90179 10.7628 5.03101C10.8375 5.16024 10.9605 5.25449 11.1047 5.29303ZM18.5522 14.3868C18.3916 15.6123 17.7902 16.7374 16.8604 17.5518C15.9306 18.3661 14.736 18.8141 13.5 18.8118C6.15938 18.8118 0.187509 12.8399 0.187509 5.49927C0.185141 4.26369 0.632653 3.0695 1.44645 2.13976C2.26025 1.21003 3.38468 0.608338 4.6097 0.447087C4.89169 0.412818 5.1772 0.470964 5.42333 0.612795C5.66947 0.754626 5.86294 0.972484 5.9747 1.23365L7.95282 5.64927C8.04016 5.84917 8.0763 6.06769 8.05797 6.28507C8.03964 6.50245 7.96741 6.71183 7.84782 6.89427C7.83576 6.91285 7.82261 6.93069 7.80845 6.94771L5.83313 9.29709C5.82114 9.32144 5.8149 9.34822 5.8149 9.37537C5.8149 9.40251 5.82114 9.4293 5.83313 9.45365C6.55126 10.9236 8.09251 12.4536 9.58313 13.1708C9.60802 13.1822 9.63521 13.1876 9.66255 13.1866C9.68988 13.1856 9.71662 13.1783 9.74063 13.1652L12.0553 11.1965C12.0718 11.1821 12.0894 11.1689 12.1078 11.1571C12.2895 11.036 12.4984 10.9621 12.7158 10.9421C12.9332 10.9222 13.1522 10.9567 13.3528 11.0427L17.7816 13.0274C18.0393 13.1416 18.2533 13.3357 18.3921 13.5811C18.5309 13.8264 18.587 14.1099 18.5522 14.3896V14.3868ZM17.4375 14.248C17.4407 14.2088 17.4314 14.1696 17.411 14.136C17.3907 14.1023 17.3603 14.0759 17.3241 14.0605L12.8944 12.0758C12.8702 12.0665 12.8442 12.0625 12.8184 12.0641C12.7925 12.0657 12.7672 12.0729 12.7444 12.0852L10.4306 14.054C10.4138 14.068 10.3959 14.0811 10.3781 14.0933C10.1894 14.2192 9.97127 14.294 9.74503 14.3104C9.51878 14.3268 9.29213 14.2844 9.0872 14.1871C7.36595 13.3555 5.65032 11.6558 4.81876 9.95053C4.72095 9.74678 4.67742 9.52123 4.69236 9.29573C4.70731 9.07022 4.78023 8.85239 4.90407 8.66334C4.91614 8.64453 4.92962 8.62667 4.94438 8.6099L6.91876 6.26052C6.93004 6.23597 6.93588 6.20927 6.93588 6.18224C6.93588 6.15522 6.93004 6.12852 6.91876 6.10396L4.94438 1.68459C4.93135 1.64912 4.90791 1.61841 4.87713 1.5965C4.84635 1.57458 4.80966 1.56248 4.77188 1.56177H4.75032C3.79683 1.68861 2.9221 2.15816 2.28947 2.88274C1.65685 3.60732 1.30958 4.53739 1.31251 5.49927C1.31251 12.2193 6.78001 17.6868 13.5 17.6868C14.462 17.6897 15.3922 17.3423 16.1168 16.7095C16.8414 16.0766 17.3109 15.2017 17.4375 14.248Z" fill="black"/>
</svg>
