<svg width="18" height="17" viewBox="0 0 18 17" fill="none" xmlns="http://www.w3.org/2000/svg">
<path d="M17.5362 5.82108L9.28617 0.321077C9.20144 0.264545 9.10186 0.234375 9 0.234375C8.89814 0.234375 8.79856 0.264545 8.71383 0.321077L0.463829 5.82108C0.393134 5.86824 0.335194 5.93215 0.295163 6.00712C0.255131 6.08208 0.23425 6.16578 0.234376 6.25076V15.1883C0.234376 15.5074 0.361133 15.8134 0.586763 16.039C0.812392 16.2646 1.11841 16.3914 1.4375 16.3914H16.5625C16.8816 16.3914 17.1876 16.2646 17.4132 16.039C17.6389 15.8134 17.7656 15.5074 17.7656 15.1883V6.25076C17.7658 6.16578 17.7449 6.08208 17.7048 6.00712C17.6648 5.93215 17.6069 5.86824 17.5362 5.82108ZM6.60922 11.0633L1.26563 14.8359V7.25194L6.60922 11.0633ZM7.66367 11.5789H10.3363L15.6894 15.3601H2.31063L7.66367 11.5789ZM11.3908 11.0633L16.7344 7.25194V14.8359L11.3908 11.0633ZM9 1.37037L16.3416 6.26881L10.3346 10.5476H7.66539L1.65836 6.26537L9 1.37037Z" fill="black"/>
</svg>
