<?xml version="1.0" encoding="UTF-8"?>
<svg width="200px" height="200px" viewBox="0 0 200 200" version="1.1" xmlns="http://www.w3.org/2000/svg" xmlns:xlink="http://www.w3.org/1999/xlink">
    <!-- Generator: Sketch 57.1 (83088) - https://sketch.com -->
    <title>sprite</title>
    <desc>Created with Sketch.</desc>
    <g id="sprite" stroke="none" stroke-width="1" fill="none" fill-rule="evenodd">
        <g id="fire" fill="#51504D" font-family="AppleColorEmoji, Apple Color Emoji" font-size="25" font-weight="normal">
            <text id="⚡">
                <tspan x="0" y="25">⚡</tspan>
            </text>
        </g>
        <g id="laptop" transform="translate(31.000000, 0.000000)" fill="#5C5A57" font-family="AppleColorEmoji, Apple Color Emoji" font-size="25" font-weight="normal">
            <text id="👨‍💻">
                <tspan x="0" y="25">👨‍💻</tspan>
            </text>
        </g>
        <g id="PlusCircle" transform="translate(62.000000, 5.000000)" fill="#14A8B5" fill-rule="nonzero">
            <path d="M9,0.875 C7.39303,0.875 5.82214,1.35152 4.486,2.24431 C3.14985,3.1371 2.10844,4.40605 1.49348,5.8907 C0.87852,7.37535 0.71762,9.009 1.03112,10.5851 C1.34463,12.1612 2.11846,13.6089 3.25476,14.7452 C4.39106,15.8815 5.8388,16.6554 7.4149,16.9689 C8.99099,17.2824 10.6247,17.1215 12.1093,16.5065 C13.594,15.8916 14.8629,14.8502 15.7557,13.514 C16.6485,12.1779 17.125,10.607 17.125,9 C17.1223,6.84594 16.2654,4.78088 14.7423,3.25773 C13.2191,1.73457 11.1541,0.87769 9,0.875 Z M12.125,9.625 L9.625,9.625 L9.625,12.125 C9.625,12.2908 9.5592,12.4497 9.4419,12.5669 C9.3247,12.6842 9.1658,12.75 9,12.75 C8.83424,12.75 8.67527,12.6842 8.55806,12.5669 C8.44085,12.4497 8.375,12.2908 8.375,12.125 L8.375,9.625 L5.875,9.625 C5.70924,9.625 5.55027,9.5592 5.43306,9.4419 C5.31585,9.3247 5.25,9.1658 5.25,9 C5.25,8.83424 5.31585,8.67527 5.43306,8.55806 C5.55027,8.44085 5.70924,8.375 5.875,8.375 L8.375,8.375 L8.375,5.875 C8.375,5.70924 8.44085,5.55027 8.55806,5.43306 C8.67527,5.31585 8.83424,5.25 9,5.25 C9.1658,5.25 9.3247,5.31585 9.4419,5.43306 C9.5592,5.55027 9.625,5.70924 9.625,5.875 L9.625,8.375 L12.125,8.375 C12.2908,8.375 12.4497,8.44085 12.5669,8.55806 C12.6842,8.67527 12.75,8.83424 12.75,9 C12.75,9.1658 12.6842,9.3247 12.5669,9.4419 C12.4497,9.5592 12.2908,9.625 12.125,9.625 Z" id="Shape"></path>
        </g>
        <g id="uprightarrow" transform="translate(85.000000, 5.000000)" stroke="#FFFFFF" stroke-linecap="round" stroke-linejoin="round" stroke-width="3.375">
            <path d="M0.26733,16.6561 L20.7272,4.8436" id="Path"></path>
            <polyline id="Path" points="16.4036 20.9798 20.7272 4.8436 4.5911 0.51995"></polyline>
        </g>
        <g id="arrow-right" transform="translate(2.000000, 38.000000)" stroke="#222222" stroke-linecap="round" stroke-linejoin="round" stroke-width="1.14286">
            <path d="M8.0007,4 L0.00073,4" id="Path"></path>
            <polyline id="Path" points="4.00073 8 0.00073 4 4.00073 0"></polyline>
        </g>
        <g id="arrow-right" transform="translate(20.500000, 42.000000) rotate(180.000000) translate(-20.500000, -42.000000) translate(16.000000, 38.000000)" stroke="#222222" stroke-linecap="round" stroke-linejoin="round" stroke-width="1.14286">
            <path d="M8.0007,4 L0.00073,4" id="Path"></path>
            <polyline id="Path" points="4.00073 8 0.00073 4 4.00073 0"></polyline>
        </g>
        <g id="social" transform="translate(0.000000, 55.000000)">
            <g id="Group-4">
                <path d="M15.75,10 C14.6128,10 13.5011,10.3372 12.5555,10.969 C11.6099,11.6009 10.8729,12.4989 10.4377,13.5496 C10.0025,14.6002 9.8886,15.7564 10.1105,16.8718 C10.3324,17.9872 10.88,19.0117 11.6841,19.8159 C12.4883,20.62 13.5128,21.1677 14.6282,21.3895 C15.7436,21.6114 16.8998,21.4975 17.9504,21.0623 C19.0011,20.6271 19.8991,19.8901 20.531,18.9445 C21.1628,17.9989 21.499996,16.8872 21.499996,15.75 C21.498,14.2256 20.8916,12.7642 19.8137,11.6863 C18.7358,10.6084 17.2744,10.002 15.75,10 Z M15.75,20 C14.9094,20 14.0877,19.7507 13.3888,19.2837 C12.6899,18.8168 12.1452,18.153 11.8235,17.3764 C11.5018,16.5998 11.4177,15.7453 11.5817,14.9209 C11.7456,14.0964 12.1504,13.3392 12.7448,12.7448 C13.3392,12.1504 14.0964,11.7456 14.9209,11.5817 C15.7453,11.4177 16.5998,11.5018 17.3764,11.8235 C18.153,12.1452 18.8168,12.6899 19.2837,13.3888 C19.7507,14.0877 20,14.9094 20,15.75 C20,16.8772 19.5522,17.9582 18.7552,18.7552 C17.9582,19.5522 16.8772,20 15.75,20 Z M21.75,3 L9.75,3 C7.9604,3.00199 6.24466,3.71378 4.97922,4.97922 C3.71378,6.24466 3.00199,7.9604 3,9.75 L3,21.75 C3.00199,23.5396 3.71378,25.2553 4.97922,26.5208 C6.24466,27.7862 7.9604,28.498 9.75,28.5 L21.75,28.5 C23.5396,28.498 25.2553,27.7862 26.5208,26.5208 C27.7862,25.2553 28.498,23.5396 28.5,21.75 L28.5,9.75 C28.498,7.9604 27.7862,6.24466 26.5208,4.97922 C25.2553,3.71378 23.5396,3.00199 21.75,3 Z M27,21.75 C27,23.1424 26.4469,24.4777 25.4623,25.4623 C24.4777,26.4469 23.1424,27 21.75,27 L9.75,27 C8.35761,27 7.02225,26.4469 6.03769,25.4623 C5.05312,24.4777 4.5,23.1424 4.5,21.75 L4.5,9.75 C4.5,8.35761 5.05312,7.02225 6.03769,6.03769 C7.02225,5.05312 8.35761,4.5 9.75,4.5 L21.75,4.5 C23.1424,4.5 24.4777,5.05312 25.4623,6.03769 C26.4469,7.02225 27,8.35761 27,9.75 L27,21.75 Z M23.5,9.25 C23.5,9.49723 23.4267,9.7389 23.2893,9.9445 C23.152,10.15 22.9568,10.3102 22.7284,10.4048 C22.4999,10.4995 22.2486,10.5242 22.0061,10.476 C21.7637,10.4278 21.5409,10.3087 21.3661,10.1339 C21.1913,9.9591 21.0723,9.73634 21.024,9.49386 C20.9758,9.25139 21.0005,9.00005 21.0951,8.77165 C21.1898,8.54324 21.35,8.34801 21.5555,8.21066 C21.7611,8.07331 22.0028,8 22.25,8 C22.5815,8 22.8995,8.1317 23.1339,8.36612 C23.3683,8.60054 23.5,8.91848 23.5,9.25 Z" id="Shape" fill="#000000" fill-rule="nonzero"></path>
                <rect id="Rectangle" x="0" y="0" width="32" height="32"></rect>
            </g>
            <g id="Group-3" transform="translate(37.000000, 0.000000)">
                <path d="M26.75,3 L4.75,3 C4.2859,3 3.8408,3.18437 3.5126,3.51256 C3.1844,3.84075 3,4.28587 3,4.75 L3,26.75 C3,27.2141 3.1844,27.6592 3.5126,27.9874 C3.8408,28.3156 4.2859,28.5 4.75,28.5 L26.75,28.5 C27.2141,28.5 27.6592,28.3156 27.9874,27.9874 C28.3156,27.6592 28.5,27.2141 28.5,26.75 L28.5,4.75 C28.5,4.28587 28.3156,3.84075 27.9874,3.51256 C27.6592,3.18437 27.2141,3 26.75,3 Z M27,26.75 C27,26.8163 26.9737,26.8799 26.9268,26.9268 C26.8799,26.9737 26.8163,27 26.75,27 L4.75,27 C4.6837,27 4.6201,26.9737 4.5732,26.9268 C4.5263,26.8799 4.5,26.8163 4.5,26.75 L4.5,4.75 C4.5,4.6837 4.5263,4.62011 4.5732,4.57322 C4.6201,4.52634 4.6837,4.5 4.75,4.5 L26.75,4.5 C26.8163,4.5 26.8799,4.52634 26.9268,4.57322 C26.9737,4.62011 27,4.6837 27,4.75 L27,26.75 Z M11.5,13.75 L11.5,21.75 C11.5,21.9489 11.421,22.1397 11.2803,22.2803 C11.1397,22.421 10.9489,22.5 10.75,22.5 C10.5511,22.5 10.3603,22.421 10.2197,22.2803 C10.079,22.1397 10,21.9489 10,21.75 L10,13.75 C10,13.5511 10.079,13.3603 10.2197,13.2197 C10.3603,13.079 10.5511,13 10.75,13 C10.9489,13 11.1397,13.079 11.2803,13.2197 C11.421,13.3603 11.5,13.5511 11.5,13.75 Z M22.5,17.25 L22.5,21.75 C22.5,21.9489 22.421,22.1397 22.2803,22.2803 C22.1397,22.421 21.9489,22.5 21.75,22.5 C21.5511,22.5 21.3603,22.421 21.2197,22.2803 C21.079,22.1397 21,21.9489 21,21.75 L21,17.25 C21,16.5207 20.7103,15.8212 20.1945,15.3055 C19.6788,14.7897 18.9793,14.5 18.25,14.5 C17.5207,14.5 16.8212,14.7897 16.3055,15.3055 C15.7897,15.8212 15.5,16.5207 15.5,17.25 L15.5,21.75 C15.5,21.9489 15.421,22.1397 15.2803,22.2803 C15.1397,22.421 14.9489,22.5 14.75,22.5 C14.5511,22.5 14.3603,22.421 14.2197,22.2803 C14.079,22.1397 14,21.9489 14,21.75 L14,13.75 C14,13.5511 14.079,13.3603 14.2197,13.2197 C14.3603,13.079 14.5511,13 14.75,13 C14.9489,13 15.1397,13.079 15.2803,13.2197 C15.421,13.3603 15.5,13.5511 15.5,13.75 L15.5,14.0138 C16.1181,13.4892 16.8733,13.1524 17.6766,13.043 C18.4799,12.9336 19.2976,13.0562 20.0335,13.3964 C20.7693,13.7366 21.3925,14.2802 21.8296,14.963 C22.2666,15.6458 22.4992,16.4393 22.5,17.25 Z M11.9999925,10.25 C11.9999925,10.4972 11.9267,10.7389 11.7893,10.9445 C11.652,11.15 11.4568,11.3102 11.2284,11.4048 C10.9999,11.4995 10.7486,11.5242 10.5061,11.476 C10.2637,11.4278 10.0409,11.3087 9.8661,11.1339 C9.6913,10.9591 9.5722,10.7363 9.524,10.4939 C9.4758,10.2514 9.5005,10.0001 9.5952,9.7716 C9.6898,9.54324 9.85,9.34801 10.0555,9.21066 C10.2611,9.07331 10.5028,9 10.75,9 C11.0815,9 11.3995,9.1317 11.6339,9.36612 C11.8683,9.60054 11.9999925,9.9185 11.9999925,10.25 Z" id="Shape" fill="#000000" fill-rule="nonzero"></path>
                <rect id="Rectangle" x="0" y="0" width="32" height="32"></rect>
            </g>
            <g id="Group-2" transform="translate(74.000000, 0.000000)">
                <path d="M15.7500007,3 C13.2280007,3 10.7630007,3.74777 8.66600071,5.14876 C6.57000071,6.54975 4.93600071,8.54103 3.97100071,10.8708 C3.00550071,13.2005 2.75300071,15.7641 3.24500071,18.2374 C3.73700071,20.7107 4.95100071,22.9825 6.73400071,24.7656 C8.51800071,26.5487 10.7890007,27.7631 13.2630007,28.255 C15.7360007,28.747 18.2990007,28.4945 20.6290007,27.5295 C22.9590007,26.5644 24.9500007,24.9302 26.3510007,22.8335 C27.7520007,20.7368 28.5,18.2717 28.5,15.75 C28.4960007,12.3697 27.1510007,9.129 24.7610007,6.73877 C22.3710007,4.34854 19.1300007,3.00397 15.7500007,3 Z M16.5000007,26.975 L16.5000007,18.5 L19.7500007,18.5 C19.9490007,18.5 20.1400007,18.421 20.2800007,18.2803 C20.4210007,18.1397 20.5000007,17.9489 20.5000007,17.75 C20.5000007,17.5511 20.4210007,17.3603 20.2800007,17.2197 C20.1400007,17.079 19.9490007,17 19.7500007,17 L16.5000007,17 L16.5000007,13.75 C16.5000007,13.1533 16.7370007,12.581 17.1590007,12.159 C17.5810007,11.7371 18.1530007,11.5 18.7500007,11.5 L20.7500007,11.5 C20.9490007,11.5 21.1400007,11.421 21.2800007,11.2803 C21.4210007,11.1397 21.5000007,10.9489 21.5000007,10.75 C21.5000007,10.5511 21.4210007,10.3603 21.2800007,10.2197 C21.1400007,10.079 20.9490007,10 20.7500007,10 L18.7500007,10 C17.7550007,10 16.8020007,10.3951 16.0980007,11.0983 C15.3950007,11.8016 15.0000007,12.7554 15.0000007,13.75 L15.0000007,17 L11.7500007,17 C11.5510007,17 11.3600007,17.079 11.2200007,17.2197 C11.0790007,17.3603 11.0000007,17.5511 11.0000007,17.75 C11.0000007,17.9489 11.0790007,18.1397 11.2200007,18.2803 C11.3600007,18.421 11.5510007,18.5 11.7500007,18.5 L15.0000007,18.5 L15.0000007,26.975 C12.0880007,26.7804 9.36500071,25.4616 7.40700071,23.2971 C5.44900071,21.1327 4.40900071,18.2919 4.50600071,15.3748 C4.60400071,12.4577 5.83100071,9.69265 7.92900071,7.66351 C10.0270007,5.63437 12.8310007,4.50003 15.7500007,4.50003 C18.6690007,4.50003 21.4730007,5.63437 23.5710007,7.66351 C25.6690007,9.69265 26.8960007,12.4577 26.9940007,15.3748 C27.0910007,18.2919 26.0510007,21.1327 24.0930007,23.2971 C22.1350007,25.4616 19.4120007,26.7804 16.5000007,26.975 Z" id="Shape" fill="#000000" fill-rule="nonzero"></path>
                <rect id="Rectangle" x="0" y="0" width="32" height="32"></rect>
            </g>
            <g id="Group" transform="translate(111.000000, 0.000000)">
                <path d="M29.4464439,7.46421094 C29.3894439,7.32709094 29.2934439,7.20984094 29.1704439,7.12729094 C29.0464439,7.04474094 28.9014439,7.00061094 28.7534439,7.00046094 L24.8034439,7.00046094 C24.3034439,6.09914094 23.5734439,5.34656094 22.6884439,4.81952094 C21.8024439,4.29247094 20.7924439,4.00984094 19.7624439,4.00046094 C19.0134439,3.99087094 18.2704439,4.13101094 17.5774439,4.41265094 C16.8834439,4.69429094 16.2534439,5.11174094 15.7234439,5.64046094 C15.1774439,6.17632094 14.7434439,6.81596094 14.4484439,7.52177094 C14.1534439,8.22759094 14.0014439,8.98529094 14.0034439,9.75049094 L14.0034439,10.8329909 C8.75344394,9.58299094 4.42844394,5.26796094 4.37844394,5.22296094 C4.27744394,5.12293094 4.15044394,5.05354094 4.01244394,5.02286094 C3.87344394,4.99218094 3.72944394,5.00147094 3.59544394,5.04965094 C3.46244394,5.09783094 3.34444394,5.18291094 3.25744394,5.29502094 C3.17044394,5.40713094 3.11744394,5.54166094 3.10344394,5.68296094 C2.57244394,11.5854909 4.28144394,15.5266909 5.80844394,17.7941909 C6.59844394,18.9820909 7.57144394,20.0368909 8.69244394,20.9191909 C6.75644394,23.2941909 3.52444394,24.5304909 3.48944394,24.5441909 C3.38344394,24.5836909 3.28644394,24.6469909 3.20844394,24.7292909 C3.12944394,24.8114909 3.07044394,24.9105909 3.03544394,25.0189909 C3.00144394,25.1273909 2.99144394,25.2422909 3.00744394,25.3549909 C3.02444394,25.4675909 3.06544394,25.5750909 3.12944394,25.6691909 C3.25344394,25.8541909 4.47644394,27.5004909 8.75344394,27.5004909 C17.4884439,27.5004909 24.7824439,20.7504909 25.4814439,12.0829909 L29.2834439,8.28171094 C29.3884439,8.17680094 29.4594439,8.04313094 29.4884439,7.89761094 C29.5174439,7.75210094 29.5024439,7.60127094 29.4464439,7.46421094 Z M24.2234439,11.2204909 C24.0944439,11.3492909 24.0164439,11.5208909 24.0044439,11.7029909 C23.4944439,19.7204909 16.7944439,26.0004909 8.75344394,26.0004909 C7.00344394,26.0004909 5.90844394,25.6991909 5.24644394,25.4004909 C6.65844394,24.6904909 8.96144394,23.2904909 10.3774439,21.1666909 C10.4334439,21.0817909 10.4724439,20.9861909 10.4904439,20.8857909 C10.5084439,20.7853909 10.5064439,20.6823909 10.4834439,20.5829909 C10.4604439,20.4828909 10.4164439,20.3886909 10.3554439,20.3060909 C10.2944439,20.2235909 10.2174439,20.1543909 10.1284439,20.1029909 C10.1124439,20.0929909 8.48744394,19.1204909 7.00344394,16.8879909 C5.25344394,14.2504909 4.41744394,11.0541909 4.50344394,7.36046094 C6.36344394,8.93549094 10.1994439,11.7466909 14.6284439,12.4854909 C14.7364439,12.5036909 14.8464439,12.4981909 14.9514439,12.4692909 C15.0564439,12.4404909 15.1544439,12.3890909 15.2374439,12.3185909 C15.3214439,12.2481909 15.3884439,12.1603909 15.4344439,12.0613909 C15.4794439,11.9623909 15.5034439,11.8545909 15.5034439,11.7454909 L15.5034439,9.75049094 C15.5024439,9.18399094 15.6144439,8.62309094 15.8334439,8.10061094 C16.0514439,7.57812094 16.3724439,7.10463094 16.7774439,6.70796094 C17.1664439,6.31924094 17.6294439,6.01220094 18.1394439,5.80484094 C18.6484439,5.59749094 19.1944439,5.49400094 19.7444439,5.50046094 C21.4234439,5.52171094 22.9944439,6.54671094 23.6494439,8.05046094 C23.7084439,8.18423094 23.8044439,8.29806094 23.9264439,8.37799094 C24.0484439,8.45792094 24.1914439,8.50048094 24.3374439,8.50046094 L26.9424439,8.50046094 L24.2234439,11.2204909 Z" id="Shape" fill="#000000" fill-rule="nonzero"></path>
                <rect id="Rectangle" x="0" y="0" width="32" height="32"></rect>
            </g>
        </g>
        <g id="social" transform="translate(0.000000, 92.000000)">
            <g id="Group-4">
                <path d="M15.75,10 C14.6128,10 13.5011,10.3372 12.5555,10.969 C11.6099,11.6009 10.8729,12.4989 10.4377,13.5496 C10.0025,14.6002 9.8886,15.7564 10.1105,16.8718 C10.3324,17.9872 10.88,19.0117 11.6841,19.8159 C12.4883,20.62 13.5128,21.1677 14.6282,21.3895 C15.7436,21.6114 16.8998,21.4975 17.9504,21.0623 C19.0011,20.6271 19.8991,19.8901 20.531,18.9445 C21.1628,17.9989 21.499996,16.8872 21.499996,15.75 C21.498,14.2256 20.8916,12.7642 19.8137,11.6863 C18.7358,10.6084 17.2744,10.002 15.75,10 Z M15.75,20 C14.9094,20 14.0877,19.7507 13.3888,19.2837 C12.6899,18.8168 12.1452,18.153 11.8235,17.3764 C11.5018,16.5998 11.4177,15.7453 11.5817,14.9209 C11.7456,14.0964 12.1504,13.3392 12.7448,12.7448 C13.3392,12.1504 14.0964,11.7456 14.9209,11.5817 C15.7453,11.4177 16.5998,11.5018 17.3764,11.8235 C18.153,12.1452 18.8168,12.6899 19.2837,13.3888 C19.7507,14.0877 20,14.9094 20,15.75 C20,16.8772 19.5522,17.9582 18.7552,18.7552 C17.9582,19.5522 16.8772,20 15.75,20 Z M21.75,3 L9.75,3 C7.9604,3.00199 6.24466,3.71378 4.97922,4.97922 C3.71378,6.24466 3.00199,7.9604 3,9.75 L3,21.75 C3.00199,23.5396 3.71378,25.2553 4.97922,26.5208 C6.24466,27.7862 7.9604,28.498 9.75,28.5 L21.75,28.5 C23.5396,28.498 25.2553,27.7862 26.5208,26.5208 C27.7862,25.2553 28.498,23.5396 28.5,21.75 L28.5,9.75 C28.498,7.9604 27.7862,6.24466 26.5208,4.97922 C25.2553,3.71378 23.5396,3.00199 21.75,3 Z M27,21.75 C27,23.1424 26.4469,24.4777 25.4623,25.4623 C24.4777,26.4469 23.1424,27 21.75,27 L9.75,27 C8.35761,27 7.02225,26.4469 6.03769,25.4623 C5.05312,24.4777 4.5,23.1424 4.5,21.75 L4.5,9.75 C4.5,8.35761 5.05312,7.02225 6.03769,6.03769 C7.02225,5.05312 8.35761,4.5 9.75,4.5 L21.75,4.5 C23.1424,4.5 24.4777,5.05312 25.4623,6.03769 C26.4469,7.02225 27,8.35761 27,9.75 L27,21.75 Z M23.5,9.25 C23.5,9.49723 23.4267,9.7389 23.2893,9.9445 C23.152,10.15 22.9568,10.3102 22.7284,10.4048 C22.4999,10.4995 22.2486,10.5242 22.0061,10.476 C21.7637,10.4278 21.5409,10.3087 21.3661,10.1339 C21.1913,9.9591 21.0723,9.73634 21.024,9.49386 C20.9758,9.25139 21.0005,9.00005 21.0951,8.77165 C21.1898,8.54324 21.35,8.34801 21.5555,8.21066 C21.7611,8.07331 22.0028,8 22.25,8 C22.5815,8 22.8995,8.1317 23.1339,8.36612 C23.3683,8.60054 23.5,8.91848 23.5,9.25 Z" id="Shape" fill="#06858F" fill-rule="nonzero"></path>
                <rect id="Rectangle" x="0" y="0" width="32" height="32"></rect>
            </g>
            <g id="Group-3" transform="translate(37.000000, 0.000000)">
                <path d="M26.75,3 L4.75,3 C4.2859,3 3.8408,3.18437 3.5126,3.51256 C3.1844,3.84075 3,4.28587 3,4.75 L3,26.75 C3,27.2141 3.1844,27.6592 3.5126,27.9874 C3.8408,28.3156 4.2859,28.5 4.75,28.5 L26.75,28.5 C27.2141,28.5 27.6592,28.3156 27.9874,27.9874 C28.3156,27.6592 28.5,27.2141 28.5,26.75 L28.5,4.75 C28.5,4.28587 28.3156,3.84075 27.9874,3.51256 C27.6592,3.18437 27.2141,3 26.75,3 Z M27,26.75 C27,26.8163 26.9737,26.8799 26.9268,26.9268 C26.8799,26.9737 26.8163,27 26.75,27 L4.75,27 C4.6837,27 4.6201,26.9737 4.5732,26.9268 C4.5263,26.8799 4.5,26.8163 4.5,26.75 L4.5,4.75 C4.5,4.6837 4.5263,4.62011 4.5732,4.57322 C4.6201,4.52634 4.6837,4.5 4.75,4.5 L26.75,4.5 C26.8163,4.5 26.8799,4.52634 26.9268,4.57322 C26.9737,4.62011 27,4.6837 27,4.75 L27,26.75 Z M11.5,13.75 L11.5,21.75 C11.5,21.9489 11.421,22.1397 11.2803,22.2803 C11.1397,22.421 10.9489,22.5 10.75,22.5 C10.5511,22.5 10.3603,22.421 10.2197,22.2803 C10.079,22.1397 10,21.9489 10,21.75 L10,13.75 C10,13.5511 10.079,13.3603 10.2197,13.2197 C10.3603,13.079 10.5511,13 10.75,13 C10.9489,13 11.1397,13.079 11.2803,13.2197 C11.421,13.3603 11.5,13.5511 11.5,13.75 Z M22.5,17.25 L22.5,21.75 C22.5,21.9489 22.421,22.1397 22.2803,22.2803 C22.1397,22.421 21.9489,22.5 21.75,22.5 C21.5511,22.5 21.3603,22.421 21.2197,22.2803 C21.079,22.1397 21,21.9489 21,21.75 L21,17.25 C21,16.5207 20.7103,15.8212 20.1945,15.3055 C19.6788,14.7897 18.9793,14.5 18.25,14.5 C17.5207,14.5 16.8212,14.7897 16.3055,15.3055 C15.7897,15.8212 15.5,16.5207 15.5,17.25 L15.5,21.75 C15.5,21.9489 15.421,22.1397 15.2803,22.2803 C15.1397,22.421 14.9489,22.5 14.75,22.5 C14.5511,22.5 14.3603,22.421 14.2197,22.2803 C14.079,22.1397 14,21.9489 14,21.75 L14,13.75 C14,13.5511 14.079,13.3603 14.2197,13.2197 C14.3603,13.079 14.5511,13 14.75,13 C14.9489,13 15.1397,13.079 15.2803,13.2197 C15.421,13.3603 15.5,13.5511 15.5,13.75 L15.5,14.0138 C16.1181,13.4892 16.8733,13.1524 17.6766,13.043 C18.4799,12.9336 19.2976,13.0562 20.0335,13.3964 C20.7693,13.7366 21.3925,14.2802 21.8296,14.963 C22.2666,15.6458 22.4992,16.4393 22.5,17.25 Z M11.9999925,10.25 C11.9999925,10.4972 11.9267,10.7389 11.7893,10.9445 C11.652,11.15 11.4568,11.3102 11.2284,11.4048 C10.9999,11.4995 10.7486,11.5242 10.5061,11.476 C10.2637,11.4278 10.0409,11.3087 9.8661,11.1339 C9.6913,10.9591 9.5722,10.7363 9.524,10.4939 C9.4758,10.2514 9.5005,10.0001 9.5952,9.7716 C9.6898,9.54324 9.85,9.34801 10.0555,9.21066 C10.2611,9.07331 10.5028,9 10.75,9 C11.0815,9 11.3995,9.1317 11.6339,9.36612 C11.8683,9.60054 11.9999925,9.9185 11.9999925,10.25 Z" id="Shape" fill="#06858F" fill-rule="nonzero"></path>
                <rect id="Rectangle" x="0" y="0" width="32" height="32"></rect>
            </g>
            <g id="Group-2" transform="translate(74.000000, 0.000000)">
                <path d="M15.7500007,3 C13.2280007,3 10.7630007,3.74777 8.66600071,5.14876 C6.57000071,6.54975 4.93600071,8.54103 3.97100071,10.8708 C3.00550071,13.2005 2.75300071,15.7641 3.24500071,18.2374 C3.73700071,20.7107 4.95100071,22.9825 6.73400071,24.7656 C8.51800071,26.5487 10.7890007,27.7631 13.2630007,28.255 C15.7360007,28.747 18.2990007,28.4945 20.6290007,27.5295 C22.9590007,26.5644 24.9500007,24.9302 26.3510007,22.8335 C27.7520007,20.7368 28.5,18.2717 28.5,15.75 C28.4960007,12.3697 27.1510007,9.129 24.7610007,6.73877 C22.3710007,4.34854 19.1300007,3.00397 15.7500007,3 Z M16.5000007,26.975 L16.5000007,18.5 L19.7500007,18.5 C19.9490007,18.5 20.1400007,18.421 20.2800007,18.2803 C20.4210007,18.1397 20.5000007,17.9489 20.5000007,17.75 C20.5000007,17.5511 20.4210007,17.3603 20.2800007,17.2197 C20.1400007,17.079 19.9490007,17 19.7500007,17 L16.5000007,17 L16.5000007,13.75 C16.5000007,13.1533 16.7370007,12.581 17.1590007,12.159 C17.5810007,11.7371 18.1530007,11.5 18.7500007,11.5 L20.7500007,11.5 C20.9490007,11.5 21.1400007,11.421 21.2800007,11.2803 C21.4210007,11.1397 21.5000007,10.9489 21.5000007,10.75 C21.5000007,10.5511 21.4210007,10.3603 21.2800007,10.2197 C21.1400007,10.079 20.9490007,10 20.7500007,10 L18.7500007,10 C17.7550007,10 16.8020007,10.3951 16.0980007,11.0983 C15.3950007,11.8016 15.0000007,12.7554 15.0000007,13.75 L15.0000007,17 L11.7500007,17 C11.5510007,17 11.3600007,17.079 11.2200007,17.2197 C11.0790007,17.3603 11.0000007,17.5511 11.0000007,17.75 C11.0000007,17.9489 11.0790007,18.1397 11.2200007,18.2803 C11.3600007,18.421 11.5510007,18.5 11.7500007,18.5 L15.0000007,18.5 L15.0000007,26.975 C12.0880007,26.7804 9.36500071,25.4616 7.40700071,23.2971 C5.44900071,21.1327 4.40900071,18.2919 4.50600071,15.3748 C4.60400071,12.4577 5.83100071,9.69265 7.92900071,7.66351 C10.0270007,5.63437 12.8310007,4.50003 15.7500007,4.50003 C18.6690007,4.50003 21.4730007,5.63437 23.5710007,7.66351 C25.6690007,9.69265 26.8960007,12.4577 26.9940007,15.3748 C27.0910007,18.2919 26.0510007,21.1327 24.0930007,23.2971 C22.1350007,25.4616 19.4120007,26.7804 16.5000007,26.975 Z" id="Shape" fill="#06858F" fill-rule="nonzero"></path>
                <rect id="Rectangle" x="0" y="0" width="32" height="32"></rect>
            </g>
            <g id="Group" transform="translate(111.000000, 0.000000)">
                <path d="M29.4464439,7.46421094 C29.3894439,7.32709094 29.2934439,7.20984094 29.1704439,7.12729094 C29.0464439,7.04474094 28.9014439,7.00061094 28.7534439,7.00046094 L24.8034439,7.00046094 C24.3034439,6.09914094 23.5734439,5.34656094 22.6884439,4.81952094 C21.8024439,4.29247094 20.7924439,4.00984094 19.7624439,4.00046094 C19.0134439,3.99087094 18.2704439,4.13101094 17.5774439,4.41265094 C16.8834439,4.69429094 16.2534439,5.11174094 15.7234439,5.64046094 C15.1774439,6.17632094 14.7434439,6.81596094 14.4484439,7.52177094 C14.1534439,8.22759094 14.0014439,8.98529094 14.0034439,9.75049094 L14.0034439,10.8329909 C8.75344394,9.58299094 4.42844394,5.26796094 4.37844394,5.22296094 C4.27744394,5.12293094 4.15044394,5.05354094 4.01244394,5.02286094 C3.87344394,4.99218094 3.72944394,5.00147094 3.59544394,5.04965094 C3.46244394,5.09783094 3.34444394,5.18291094 3.25744394,5.29502094 C3.17044394,5.40713094 3.11744394,5.54166094 3.10344394,5.68296094 C2.57244394,11.5854909 4.28144394,15.5266909 5.80844394,17.7941909 C6.59844394,18.9820909 7.57144394,20.0368909 8.69244394,20.9191909 C6.75644394,23.2941909 3.52444394,24.5304909 3.48944394,24.5441909 C3.38344394,24.5836909 3.28644394,24.6469909 3.20844394,24.7292909 C3.12944394,24.8114909 3.07044394,24.9105909 3.03544394,25.0189909 C3.00144394,25.1273909 2.99144394,25.2422909 3.00744394,25.3549909 C3.02444394,25.4675909 3.06544394,25.5750909 3.12944394,25.6691909 C3.25344394,25.8541909 4.47644394,27.5004909 8.75344394,27.5004909 C17.4884439,27.5004909 24.7824439,20.7504909 25.4814439,12.0829909 L29.2834439,8.28171094 C29.3884439,8.17680094 29.4594439,8.04313094 29.4884439,7.89761094 C29.5174439,7.75210094 29.5024439,7.60127094 29.4464439,7.46421094 Z M24.2234439,11.2204909 C24.0944439,11.3492909 24.0164439,11.5208909 24.0044439,11.7029909 C23.4944439,19.7204909 16.7944439,26.0004909 8.75344394,26.0004909 C7.00344394,26.0004909 5.90844394,25.6991909 5.24644394,25.4004909 C6.65844394,24.6904909 8.96144394,23.2904909 10.3774439,21.1666909 C10.4334439,21.0817909 10.4724439,20.9861909 10.4904439,20.8857909 C10.5084439,20.7853909 10.5064439,20.6823909 10.4834439,20.5829909 C10.4604439,20.4828909 10.4164439,20.3886909 10.3554439,20.3060909 C10.2944439,20.2235909 10.2174439,20.1543909 10.1284439,20.1029909 C10.1124439,20.0929909 8.48744394,19.1204909 7.00344394,16.8879909 C5.25344394,14.2504909 4.41744394,11.0541909 4.50344394,7.36046094 C6.36344394,8.93549094 10.1994439,11.7466909 14.6284439,12.4854909 C14.7364439,12.5036909 14.8464439,12.4981909 14.9514439,12.4692909 C15.0564439,12.4404909 15.1544439,12.3890909 15.2374439,12.3185909 C15.3214439,12.2481909 15.3884439,12.1603909 15.4344439,12.0613909 C15.4794439,11.9623909 15.5034439,11.8545909 15.5034439,11.7454909 L15.5034439,9.75049094 C15.5024439,9.18399094 15.6144439,8.62309094 15.8334439,8.10061094 C16.0514439,7.57812094 16.3724439,7.10463094 16.7774439,6.70796094 C17.1664439,6.31924094 17.6294439,6.01220094 18.1394439,5.80484094 C18.6484439,5.59749094 19.1944439,5.49400094 19.7444439,5.50046094 C21.4234439,5.52171094 22.9944439,6.54671094 23.6494439,8.05046094 C23.7084439,8.18423094 23.8044439,8.29806094 23.9264439,8.37799094 C24.0484439,8.45792094 24.1914439,8.50048094 24.3374439,8.50046094 L26.9424439,8.50046094 L24.2234439,11.2204909 Z" id="Shape" fill="#06858F" fill-rule="nonzero"></path>
                <rect id="Rectangle" x="0" y="0" width="32" height="32"></rect>
            </g>
        </g>
        <g id="🗞️" transform="translate(111.000000, 0.000000)" fill="#666561" font-family="AppleColorEmoji, Apple Color Emoji" font-size="25" font-weight="normal">
            <text>
                <tspan x="0" y="25">🗞️</tspan>
            </text>
        </g>
        <g id="MagnifyingGlass" transform="translate(30.000000, 34.000000)" fill="#5B5D5E" fill-rule="nonzero">
            <path d="M19.5308,18.4693 L14.8368,13.7762 C16.1973,12.1428 16.8757,10.0478 16.7309,7.92691 C16.5861,5.80604 15.6293,3.82265 14.0593,2.38932 C12.4894,0.95599 10.4274,0.18308 8.3021,0.23138 C6.17687,0.27968 4.15205,1.14547 2.64888,2.64864 C1.14571,4.15181 0.27993,6.17663 0.23163,8.3019 C0.18333,10.4271 0.95623,12.4892 2.38956,14.0591 C3.82289,15.629 5.80629,16.5859 7.92715,16.7307 C10.048,16.8755 12.1431,16.1971 13.7765,14.8365 L18.4696,19.5306 C18.5393,19.6003 18.622,19.6556 18.713,19.6933 C18.8041,19.731 18.9017,19.7504 19.0002,19.7504 C19.0988,19.7504 19.1963,19.731 19.2874,19.6933 C19.3784,19.6556 19.4612,19.6003 19.5308,19.5306 C19.6005,19.4609 19.6558,19.3782 19.6935,19.2871 C19.7312,19.1961 19.7506,19.0985 19.7506,19 C19.7506,18.9014 19.7312,18.8038 19.6935,18.7128 C19.6558,18.6218 19.6005,18.539 19.5308,18.4693 Z M1.75021,8.5 C1.75021,7.16495 2.14609,5.8599 2.88779,4.74987 C3.62949,3.63984 4.6837,2.77467 5.9171,2.26378 C7.1505,1.75289 8.5077,1.61922 9.8171,1.87967 C11.1264,2.14012 12.3292,2.78299 13.2732,3.727 C14.2172,4.671 14.8601,5.87374 15.1205,7.18311 C15.381,8.4925 15.2473,9.8497 14.7364,11.0831 C14.2255,12.3165 13.3603,13.3707 12.2503,14.1124 C11.1403,14.8541 9.8352,15.25 8.5002,15.25 C6.71061,15.248 4.99488,14.5362 3.72944,13.2708 C2.464,12.0053 1.7522,10.2896 1.75021,8.5 Z" id="Shape"></path>
        </g>
        <g id="downarrow" transform="translate(55.000000, 42.000000)" fill="#1C1C1C" fill-rule="nonzero">
            <path d="M9.32687,0.986487 L5.41513,4.83041 C5.36062,4.88417 5.29585,4.92682 5.22452,4.95592 C5.1532,4.98502 5.07674,5 4.99951,5 C4.92228,5 4.84582,4.98502 4.7745,4.95592 C4.70318,4.92682 4.6384,4.88417 4.58389,4.83041 L0.672156,0.986487 C0.561926,0.878168 0.5,0.731256 0.5,0.578069 C0.5,0.424883 0.561926,0.277971 0.672156,0.169652 C0.782386,0.0613334 0.931889,0.000480595 1.08778,0.000480593 C1.24367,0.000480592 1.39317,0.0613334 1.5034,0.169652 L5,3.60564 L8.4966,0.169172 C8.60683,0.0608532 8.75633,0 8.91222,0 C9.06811,0 9.21761,0.0608532 9.32784,0.169172 C9.43807,0.277491 9.5,0.424403 9.5,0.577589 C9.5,0.730775 9.43807,0.877687 9.32784,0.986006 L9.32687,0.986487 Z" id="Path"></path>
        </g>
        <g id="phone" transform="translate(70.000000, 34.000000)" fill="#06858F" fill-rule="nonzero">
            <path d="M11.4563,2.00472 C11.4753,1.93329 11.5082,1.86631 11.5532,1.80762 C11.5981,1.74893 11.6542,1.69968 11.7182,1.66267 C11.7822,1.62567 11.8529,1.60164 11.9261,1.59196 C11.9994,1.58229 12.0739,1.5871237 12.1453,1.60628 C13.5039,1.96068 14.7435,2.67087 15.7363,3.6637 C16.7292,4.65653 17.4394,5.8961 17.7938,7.25472 C17.8129482,7.32613 17.8178,7.4006 17.8081,7.47389 C17.7984,7.54718 17.7744,7.61784 17.7374,7.68184 C17.7004,7.74583 17.6511,7.80191 17.5924,7.84685 C17.5337,7.8918 17.4668,7.92474 17.3953,7.94378 C17.3479,7.9564 17.2991,7.96271 17.25,7.96253374 C17.1261,7.96261 17.0056,7.92175 16.9073,7.84631 C16.8089,7.77087 16.7383,7.66507 16.7063,7.54534 C16.402,6.37833 15.792,5.31357 14.9393,4.46078 C14.0865,3.60799 13.0217,2.99804 11.8547,2.69378 C11.7833,2.67474 11.7163,2.6418 11.6576,2.59686 C11.5989,2.55191 11.5497,2.49583 11.5126,2.43184 C11.4756,2.36784 11.4516,2.29718 11.4419,2.22389 C11.4323,2.1506 11.4371,2.07613 11.4563,2.00472 Z M11.1047,5.69378 C12.4688,6.05753 13.3425,6.93128 13.7063,8.29534 C13.7383,8.41507 13.8089,8.52087 13.9073,8.59631 C14.0056,8.67175 14.1261,8.71261 14.25,8.71253374 C14.2991,8.71271 14.3479,8.7064 14.3953,8.69378 C14.4668,8.67474 14.5337,8.6418 14.5924,8.59685 C14.6511,8.55191 14.7004,8.49583 14.7374,8.43184 C14.7744,8.36784 14.7984,8.29718 14.8081,8.22389 C14.8178,8.1506 14.8129,8.07613 14.7938,8.00472 C14.325,6.25066 13.1494,5.07503 11.3953,4.60628 C11.3239,4.58719992 11.2494,4.58237 11.1762,4.59206 C11.1029,4.60176 11.0323,4.62579 10.9683,4.66279 C10.839,4.73751 10.7448,4.86051 10.7063,5.00472 C10.6677,5.14893 10.688,5.30255 10.7628,5.43177 C10.8375,5.56099 10.9605,5.65524 11.1047,5.69378 Z M18.5522,14.7875 C18.3916,16.0131 17.7902,17.1382 16.8604,17.9525 C15.9306,18.7669 14.736,19.2148 13.5,19.2125088 C6.15938,19.2125088 0.18749965,13.2407 0.18749965,5.90003 C0.185141,4.66445 0.632653,3.47025 1.44645,2.54052 C2.26025,1.61078 3.38468,1.00909 4.6097,0.847844 C4.89169,0.813574 5.1772,0.871721 5.42333,1.01355 C5.66947,1.15538 5.86294,1.37324 5.9747,1.63441 L7.95282,6.05003 C8.04016,6.24993 8.0763,6.46845 8.05797,6.68583 C8.03964,6.9032 7.96741,7.11258 7.84782,7.29503 C7.83576,7.3136 7.82261,7.33145 7.80845,7.34847 L5.83313,9.69784 C5.82114,9.7222 5.8149,9.74898 5.8149,9.77612 C5.8149,9.80327 5.82114,9.83005 5.83313,9.85441 C6.55126,11.3244 8.09251,12.8544 9.58313,13.5716 C9.60802,13.5829 9.63521,13.5883 9.66255,13.5874 C9.68988,13.5864 9.71662,13.5791 9.74063,13.566 L12.0553,11.5972 C12.0718,11.5828 12.0894,11.5697 12.1078,11.5578 C12.2895,11.4367 12.4984,11.3629 12.7158,11.3429 C12.9332,11.3229 13.1522,11.3575 13.3528,11.4435 L17.7816,13.4282 C18.0393,13.5424 18.2533,13.7365 18.3921,13.9818 C18.5309,14.2272 18.587,14.5106 18.5522,14.7903 L18.5522,14.7875 Z M17.4375,14.6488 C17.4407,14.6096 17.4314,14.5704 17.411,14.5367 C17.3907,14.5031 17.3603,14.4767 17.3241,14.4613 L12.8944,12.4766 C12.8702,12.4673 12.8442,12.4633 12.8184,12.4649 C12.7925,12.4665 12.7672,12.4737 12.7444,12.486 L10.4306,14.4547 C10.4138,14.4688 10.3959,14.4819 10.3781,14.4941 C10.1894,14.6199 9.97127,14.6947 9.74503,14.7112 C9.51878,14.7276 9.29213,14.6851 9.0872,14.5878 C7.36595,13.7563 5.65032,12.0566 4.81876,10.3513 C4.72095,10.1475 4.67742,9.92199 4.69236,9.69648 C4.70731,9.47097 4.78023,9.25315 4.90407,9.06409 C4.91614,9.04529 4.92962,9.02743 4.94438,9.01066 L6.91876,6.66128 C6.93004,6.63673 6.93588,6.61002 6.93588,6.583 C6.93588,6.55598 6.93004,6.52927 6.91876,6.50472 L4.94438,2.08534 C4.93135,2.04988 4.90791,2.01917 4.87713,1.99726 C4.84635,1.97534 4.80966,1.96324 4.77188,1.96253 L4.75032,1.96253 C3.79683,2.08937 2.9221,2.55892 2.28947,3.2835 C1.65685,4.00807 1.30958,4.93815 1.31249161,5.90003 C1.31249161,12.62 6.78001,18.087518 13.5,18.087518 C14.462,18.0904 15.3922,17.743 16.1168,17.1102 C16.8414,16.4774 17.3109,15.6024 17.4375,14.6488 Z" id="Shape"></path>
        </g>
        <g id="mail" transform="translate(94.000000, 36.000000)" fill="#000000" fill-rule="nonzero">
            <path d="M17.5362,6.22037 L9.28617,0.720369 C9.20144,0.663837 9.10186,0.633667 9,0.633667 C8.89814,0.633667 8.79856,0.663837 8.71383,0.720369 L0.463829,6.22037 C0.393134,6.26754 0.335194,6.33144 0.295163,6.40641 C0.255131,6.48137 0.234375433,6.56507 0.234375433,6.65006 L0.234375433,15.5876 C0.234375433,15.9066 0.361133,16.2127 0.586763,16.4383 C0.812392,16.6639 1.11841,16.7907 1.4375,16.7907 L16.5625,16.7907 C16.8816,16.7907 17.1876,16.6639 17.4132,16.4383 C17.6389,16.2127 17.7656014,15.9066 17.7656014,15.5876 L17.7656014,6.65006 C17.7658,6.56507 17.7449,6.48137 17.7048,6.40641 C17.6648,6.33144 17.6069,6.26754 17.5362,6.22037 Z M6.60922,11.4626 L1.26563,15.2352 L1.26563,7.65123 L6.60922,11.4626 Z M7.66367,11.9782 L10.3363,11.9782 L15.6894,15.7594 L2.31063,15.7594 L7.66367,11.9782 Z M11.3908,11.4626 L16.7344,7.65123 L16.7344,15.2352 L11.3908,11.4626 Z M9,1.76967 L16.3416,6.6681 L10.3346,10.9469 L7.66539,10.9469 L1.65836,6.66467 L9,1.76967 Z" id="Shape"></path>
        </g>
        <g id="arrow-right" transform="translate(122.000000, 38.000000)" stroke="#FFFFFF" stroke-linecap="round" stroke-linejoin="round" stroke-width="1.14286">
            <path d="M8.0007,4 L0.00073,4" id="Path"></path>
            <polyline id="Path" points="4.00073 8 0.00073 4 4.00073 0"></polyline>
        </g>
        <g id="arrow-right" transform="translate(140.500000, 42.000000) rotate(180.000000) translate(-140.500000, -42.000000) translate(136.000000, 38.000000)" stroke="#FFFFFF" stroke-linecap="round" stroke-linejoin="round" stroke-width="1.14286">
            <path d="M8.0007,4 L0.00073,4" id="Path"></path>
            <polyline id="Path" points="4.00073 8 0.00073 4 4.00073 0"></polyline>
        </g>
    </g>
</svg>